<?xml version="1.0" encoding="UTF-8"?>
<svg version="1.1" xmlns="http://www.w3.org/2000/svg" width="200" height="200">
<path d="M0 0 C66 0 132 0 200 0 C200 66 200 132 200 200 C134 200 68 200 0 200 C0 134 0 68 0 0 Z " fill="#FEFDFE" transform="translate(0,0)"/>
<path d="M0 0 C2.64 0 5.28 0 8 0 C9.42842911 3.66452852 10.85247676 7.33072569 12.27246094 10.99853516 C12.99441847 12.86060415 13.71985238 14.72132407 14.4453125 16.58203125 C14.89648438 17.74863281 15.34765625 18.91523437 15.8125 20.1171875 C16.23144531 21.19597168 16.65039062 22.27475586 17.08203125 23.38623047 C18 26 18 26 18 28 C15.69 28 13.38 28 11 28 C10.34 26.35 9.68 24.7 9 23 C5.37 23 1.74 23 -2 23 C-2.33 24.65 -2.66 26.3 -3 28 C-5.31 28 -7.62 28 -10 28 C-9.43116017 23.9158873 -8.52141737 20.40339371 -6.93359375 16.6015625 C-6.53076172 15.62832031 -6.12792969 14.65507813 -5.71289062 13.65234375 C-5.29201172 12.65332031 -4.87113281 11.65429688 -4.4375 10.625 C-4.01275391 9.60277344 -3.58800781 8.58054687 -3.15039062 7.52734375 C-2.10587881 5.01582095 -1.05560951 2.50687381 0 0 Z " fill="#482867" transform="translate(97,75)"/>
<path d="M0 0 C3.125 -0.5625 3.125 -0.5625 7 0 C9.46527449 2.74335318 11.2476366 5.76486756 13 9 C14.65 6.03 16.3 3.06 18 0 C20.31 0 22.62 0 25 0 C23.92093273 4.10045564 22.27622995 7.14775163 19.9375 10.625 C16.41593694 16.24579165 16.02242813 21.47341354 16 28 C13.69 28 11.38 28 9 28 C9.020625 27.21238281 9.04125 26.42476562 9.0625 25.61328125 C8.89424923 16.72753768 6.61222645 11.70001982 1.71484375 4.58203125 C0 2 0 2 0 0 Z " fill="#4C2E68" transform="translate(115,75)"/>
<path d="M0 0 C2.375 0.9375 2.375 0.9375 3.6875 3 C4.0278125 3.9590625 4.0278125 3.9590625 4.375 4.9375 C7.015 4.9375 9.655 4.9375 12.375 4.9375 C13.695 8.5675 15.015 12.1975 16.375 15.9375 C18.685 16.2675 20.995 16.5975 23.375 16.9375 C23.601875 16.298125 23.82875 15.65875 24.0625 15 C25.375 12.9375 25.375 12.9375 27.75 12 C30.98439697 11.92299055 32.04597204 12.78099263 34.375 14.9375 C34.0625 18.3125 34.0625 18.3125 33.375 21.9375 C30.375 23.9375 30.375 23.9375 27.8125 23.8125 C25.375 22.9375 25.375 22.9375 23.375 18.9375 C20.405 18.9375 17.435 18.9375 14.375 18.9375 C13.70380451 17.4812455 13.03818193 16.02242133 12.375 14.5625 C12.00375 13.75039062 11.6325 12.93828125 11.25 12.1015625 C10.375 9.9375 10.375 9.9375 10.375 7.9375 C5.40588634 9.06447043 5.40588634 9.06447043 1.375 11.9375 C-1.43484248 12.29773622 -3.00741919 12.32082602 -5.4375 10.8125 C-7.19502414 8.03746189 -7.09322746 6.14820255 -6.625 2.9375 C-4.42604299 0.41277158 -3.35206126 -0.07981098 0 0 Z " fill="#79557F" transform="translate(21.625,95.0625)"/>
<path d="M0 0 C3.88405164 0.24479317 5.67767073 2.39537002 8.25 5.125 C11.01591455 7.98985783 13.77168523 10.7414562 16.8125 13.3125 C21.03521554 16.92347405 24.90938171 20.85291861 28.78833008 24.82543945 C31.38282761 27.46452924 33.95811308 29.88516433 37 32 C36.67 32.99 36.34 33.98 36 35 C30.09388548 30.84431803 25.0185039 26.24273303 20 21.0625 C11.08614412 11.85216708 11.08614412 11.85216708 1 4 C-10.23690812 14.44556943 -10.23690812 14.44556943 -21.1875 25.1875 C-24.32311366 28.35343874 -27.41046107 31.35057841 -31 34 C-31.99 34 -32.98 34 -34 34 C-32.4411883 30.01018435 -29.64583299 27.62833979 -26.5 24.875 C-22.46671929 21.26960199 -18.54799822 17.60697335 -14.75 13.75 C-11.16381604 10.1175427 -7.477823 6.68601305 -3.59375 3.375 C-2.34946955 2.30150314 -1.16203041 1.16203041 0 0 Z " fill="#815E87" transform="translate(34,65)"/>
<path d="M0 0 C8.25 0 16.5 0 25 0 C25 1.65 25 3.3 25 5 C21.7 5 18.4 5 15 5 C15 12.26 15 19.52 15 27 C13.35 27 11.7 27 10 27 C9.67 20.07 9.34 13.14 9 6 C6.03 5.67 3.06 5.34 0 5 C0 3.35 0 1.7 0 0 Z " fill="#7E6A91" transform="translate(175,75)"/>
<path d="M0 0 C4.01683753 2.04493547 6.61561784 4.19989094 9 8 C9.89343272 12.52257029 10.02849442 17.06643049 7.828125 21.203125 C5.05762359 24.60198756 2.35860767 26.96769818 -2 28 C-3.32 28 -4.64 28 -6 28 C-5.67 27.01 -5.34 26.02 -5 25 C-3.00390625 24.4453125 -3.00390625 24.4453125 -0.5625 24.125 C3.07966218 23.5140808 3.07966218 23.5140808 5.5625 20.9375 C6.78564069 13.15236804 6.78564069 13.15236804 4.125 6 C1.10168935 3.15453115 -0.51348653 2.86200156 -4.5625 2.875 C-5.36816406 2.87242188 -6.17382812 2.86984375 -7.00390625 2.8671875 C-8.99942021 2.77988609 -8.99942021 2.77988609 -10 4 C-9.34 3.67 -8.68 3.34 -8 3 C-3.54172873 2.48558408 -1.49853609 2.69533905 2.375 5.0625 C5.42983984 8.48101125 5.82303398 10.48736659 6 15 C5.34 14.67 4.68 14.34 4 14 C3.71125 13.030625 3.4225 12.06125 3.125 11.0625 C2.29967106 7.98777242 2.29967106 7.98777242 0.25 6.625 C-2.7106248 5.80260422 -4.93931166 5.61741396 -8 6 C-11.72939349 8.69345085 -12.81079495 11.63958149 -14 16 C-15.65 15.67 -17.3 15.34 -19 15 C-18.74086272 8.65113652 -16.61254026 5.3311386 -12 1 C-8.29018719 -0.85490641 -4.04876607 -0.4540091 0 0 Z " fill="#503E62" transform="translate(162,75)"/>
<path d="M0 0 C0.99 0 1.98 0 3 0 C3 10.56 3 21.12 3 32 C-4.59 32 -12.18 32 -20 32 C-20 32.66 -20 33.32 -20 34 C-22.875 34.625 -22.875 34.625 -26 35 C-26.66 34.34 -27.32 33.68 -28 33 C-27.625 29.875 -27.625 29.875 -27 27 C-24.625 26.375 -24.625 26.375 -22 26 C-21.34 26.66 -20.68 27.32 -20 28 C-17.87139338 28.36952049 -17.87139338 28.36952049 -15.4296875 28.4140625 C-14.62257324 28.44967285 -13.81545898 28.4852832 -12.98388672 28.52197266 C-11.44498779 28.57297119 -11.44498779 28.57297119 -9.875 28.625 C-6.61625 28.74875 -3.3575 28.8725 0 29 C0 19.43 0 9.86 0 0 Z " fill="#7E5984" transform="translate(59,100)"/>
<path d="M0 0 C3 0.875 3 0.875 4.9375 2.5 C6.49800943 5.98819754 5.99154664 8.23932898 5 11.875 C3.3125 13.875 3.3125 13.875 1 14.875 C-2.18735304 14.74490396 -4.21189474 14.44569691 -6.8125 12.5625 C-8.24065632 10.53301471 -8.8532474 9.36979421 -9 6.875 C-6.94809046 2.56598997 -5.11409656 -0.21308736 0 0 Z " fill="#F3F2F4" transform="translate(172,108.125)"/>
<path d="M0 0 C0.99 0 1.98 0 3 0 C3 9.57 3 19.14 3 29 C7.62 29 12.24 29 17 29 C17 29.99 17 30.98 17 32 C11.39 32 5.78 32 0 32 C0 21.44 0 10.88 0 0 Z " fill="#805D85" transform="translate(9,100)"/>
<path d="M0 0 C2.64 0 5.28 0 8 0 C9.32 3.96 10.64 7.92 12 12 C11.01 12.495 11.01 12.495 10 13 C9.34 12.67 8.68 12.34 8 12 C8 13.32 8 14.64 8 16 C7.34 16 6.68 16 6 16 C5.773125 15.05125 5.54625 14.1025 5.3125 13.125 C4.30916286 9.80676612 4.30916286 9.80676612 1.375 8.625 C0.59125 8.41875 -0.1925 8.2125 -1 8 C-1.125 2.25 -1.125 2.25 0 0 Z " fill="#4D306B" transform="translate(97,75)"/>
<path d="M0 0 C2.375 0.9375 2.375 0.9375 3.6875 3 C4.0278125 3.9590625 4.0278125 3.9590625 4.375 4.9375 C6.685 4.9375 8.995 4.9375 11.375 4.9375 C8.375 6.9375 8.375 6.9375 4.375 6.9375 C4.065625 7.576875 3.75625 8.21625 3.4375 8.875 C2.375 10.9375 2.375 10.9375 1.375 11.9375 C-1.39693929 12.22928308 -3.03909825 12.30116316 -5.4375 10.8125 C-7.19502414 8.03746189 -7.09322746 6.14820255 -6.625 2.9375 C-4.42604299 0.41277158 -3.35206126 -0.07981098 0 0 Z " fill="#826289" transform="translate(21.625,95.0625)"/>
<path d="M0 0 C2.31 0 4.62 0 7 0 C7 4.95 7 9.9 7 15 C4.69 15 2.38 15 0 15 C0 10.05 0 5.1 0 0 Z " fill="#D8D5DC" transform="translate(193,108)"/>
<path d="M0 0 C3.375 2.0625 3.375 2.0625 6 5 C6.875 8.8125 6.875 8.8125 7 12 C6.34 11.67 5.68 11.34 5 11 C4.71125 10.030625 4.4225 9.06125 4.125 8.0625 C3.29967106 4.98777242 3.29967106 4.98777242 1.25 3.625 C-1.7106248 2.80260422 -3.93931166 2.61741396 -7 3 C-10.72939349 5.69345085 -11.81079495 8.63958149 -13 13 C-14.65 12.67 -16.3 12.34 -18 12 C-17.3956044 5.59340659 -17.3956044 5.59340659 -15.75 3.125 C-13.54358509 1.70659042 -11.57603077 1.39631243 -9 1 C-5.85088521 -0.57455739 -3.47991184 -0.34799118 0 0 Z " fill="#604D72" transform="translate(161,78)"/>
<path d="M0 0 C0.33 0.33 0.66 0.66 1 1 C2.48638992 1.15655027 3.97949127 1.25066943 5.47265625 1.31640625 C6.82133789 1.37924805 6.82133789 1.37924805 8.19726562 1.44335938 C9.61555664 1.50233398 9.61555664 1.50233398 11.0625 1.5625 C12.01189453 1.60568359 12.96128906 1.64886719 13.93945312 1.69335938 C16.29281353 1.79979276 18.64628354 1.90181008 21 2 C21 2.33 21 2.66 21 3 C18.94921875 3.22786458 16.8984375 3.45572917 14.84765625 3.68359375 C12.98859771 3.81886614 12.98859771 3.81886614 12 5 C10.14712498 5.07226502 8.29166122 5.0838122 6.4375 5.0625 C5.42558594 5.05347656 4.41367187 5.04445312 3.37109375 5.03515625 C2.19740234 5.01775391 2.19740234 5.01775391 1 5 C1 5.66 1 6.32 1 7 C-1.875 7.625 -1.875 7.625 -5 8 C-5.66 7.34 -6.32 6.68 -7 6 C-6.75 2.9375 -6.75 2.9375 -6 0 C-3.49749232 -1.25125384 -2.59701335 -0.83774624 0 0 Z " fill="#825D89" transform="translate(38,127)"/>
<path d="M0 0 C0.061875 0.928125 0.061875 0.928125 0.125 1.875 C0.41375 2.57625 0.7025 3.2775 1 4 C1.969375 4.2475 2.93875 4.495 3.9375 4.75 C7 6 7 6 7.83984375 7.8984375 C8.32366201 9.91140398 8.67034216 11.95612137 9 14 C6.69 14 4.38 14 2 14 C2 13.34 2 12.68 2 12 C1.34 12 0.68 12 0 12 C0 12.66 0 13.32 0 14 C-1.65 14.33 -3.3 14.66 -5 15 C-3.33333333 10 -1.66666667 5 0 0 Z " fill="#52356E" transform="translate(95,79)"/>
<path d="M0 0 C1.62463842 -0.05395478 3.24978541 -0.09277195 4.875 -0.125 C5.77992188 -0.14820312 6.68484375 -0.17140625 7.6171875 -0.1953125 C10 0 10 0 12 2 C12.22705078 4.24658203 12.22705078 4.24658203 12.1953125 7.0078125 C12.18564453 8.48701172 12.18564453 8.48701172 12.17578125 9.99609375 C12.15902344 11.02863281 12.14226562 12.06117187 12.125 13.125 C12.11597656 14.16527344 12.10695312 15.20554687 12.09765625 16.27734375 C12.07403747 18.85179092 12.04110149 21.42578212 12 24 C11.34 24 10.68 24 10 24 C9.67 17.07 9.34 10.14 9 3 C6.03 2.67 3.06 2.34 0 2 C0 1.34 0 0.68 0 0 Z " fill="#604874" transform="translate(175,78)"/>
<path d="M0 0 C0.66 0 1.32 0 2 0 C3.00484204 1.95585325 4.00373805 3.91476237 5 5.875 C5.556875 6.96554688 6.11375 8.05609375 6.6875 9.1796875 C8 12 8 12 8 14 C6.1875 13.8125 6.1875 13.8125 4 13 C1.85802506 10.09303401 1 8.64478912 1 5 C0.34 5 -0.32 5 -1 5 C-1.66 6.65 -2.32 8.3 -3 10 C-3.33 9.34 -3.66 8.68 -4 8 C-3.22265625 6.0546875 -3.22265625 6.0546875 -2.0625 3.875 C-1.49208984 2.78832031 -1.49208984 2.78832031 -0.91015625 1.6796875 C-0.60980469 1.12539062 -0.30945313 0.57109375 0 0 Z " fill="#D9D7DB" transform="translate(116,109)"/>
<path d="M0 0 C1.98 1.65 3.96 3.3 6 5 C6.66 4.67 7.32 4.34 8 4 C7.34 5.32 6.68 6.64 6 8 C4.68 8 3.36 8 2 8 C1.67 9.98 1.34 11.96 1 14 C0.34 14 -0.32 14 -1 14 C-1.02694851 12.04174127 -1.04637218 10.08337774 -1.0625 8.125 C-1.07410156 7.03445312 -1.08570313 5.94390625 -1.09765625 4.8203125 C-1 2 -1 2 0 0 Z " fill="#DFDCE2" transform="translate(180,109)"/>
<path d="M0 0 C2 0 4 0 6 0 C6.125 5.75 6.125 5.75 5 8 C2.69 8 0.38 8 -2 8 C-1.125 2.25 -1.125 2.25 0 0 Z " fill="#52336E" transform="translate(89,95)"/>
<path d="M0 0 C0.33 0 0.66 0 1 0 C1.875 3.0625 1.875 3.0625 2 7 C-0.11589012 10.77837521 -2.84570039 13.36788355 -6.625 15.4375 C-9 16 -9 16 -13 16 C-12.67 15.01 -12.34 14.02 -12 13 C-10.00390625 12.4453125 -10.00390625 12.4453125 -7.5625 12.125 C-5.13812875 11.70254615 -5.13812875 11.70254615 -3 11 C-1.32221688 8.80581563 -1.32221688 8.80581563 -1 6 C-0.79375 4.906875 -0.5875 3.81375 -0.375 2.6875 C-0.25125 1.800625 -0.1275 0.91375 0 0 Z " fill="#604F73" transform="translate(169,87)"/>
<path d="M0 0 C1.98 0 3.96 0 6 0 C5.01 0.495 5.01 0.495 4 1 C4 3.64 4 6.28 4 9 C4.66 9 5.32 9 6 9 C6.33 10.32 6.66 11.64 7 13 C5.35 12.01 3.7 11.02 2 10 C1.67 11.32 1.34 12.64 1 14 C0.67 9.38 0.34 4.76 0 0 Z " fill="#D2CFD4" transform="translate(126,108)"/>
<path d="M0 0 C0.33 0 0.66 0 1 0 C1 1.65 1 3.3 1 5 C2.98 5 4.96 5 7 5 C7 3.35 7 1.7 7 0 C7.33 0 7.66 0 8 0 C8 4.29 8 8.58 8 13 C7.67 13 7.34 13 7 13 C7 11.35 7 9.7 7 8 C5.02 8 3.04 8 1 8 C1 9.65 1 11.3 1 13 C0.67 13 0.34 13 0 13 C0 8.71 0 4.42 0 0 Z " fill="#CDCBD1" transform="translate(154,109)"/>
<path d="M0 0 C3.375 2.0625 3.375 2.0625 6 5 C6.875 8.8125 6.875 8.8125 7 12 C6.34 11.67 5.68 11.34 5 11 C4.71125 10.030625 4.4225 9.06125 4.125 8.0625 C3.29967106 4.98777242 3.29967106 4.98777242 1.25 3.625 C-2.76099941 2.5108335 -6.0728285 2.69094283 -10 4 C-9.67 3.01 -9.34 2.02 -9 1 C-5.85088521 -0.57455739 -3.47991184 -0.34799118 0 0 Z " fill="#533C6A" transform="translate(161,78)"/>
<path d="M0 0 C3.3 0 6.6 0 10 0 C9.01 0.33 8.02 0.66 7 1 C7 5.29 7 9.58 7 14 C6.01 14.33 5.02 14.66 4 15 C4 10.38 4 5.76 4 1 C2.68 0.67 1.36 0.34 0 0 Z " fill="#DAD6DC" transform="translate(137,108)"/>
<path d="M0 0 C1.79068573 2.6860286 2.66055791 4.6626589 3.625 7.6875 C3.88539062 8.49574219 4.14578125 9.30398437 4.4140625 10.13671875 C4.60742188 10.75160156 4.80078125 11.36648437 5 12 C4.01 12.33 3.02 12.66 2 13 C1.01 9.7 0.02 6.4 -1 3 C-2.98 3 -4.96 3 -7 3 C-4.66785852 1.79371992 -2.50357861 0.8345262 0 0 Z " fill="#85638C" transform="translate(33,100)"/>
<path d="M0 0 C1.80030122 2.70045182 2.93377066 5.06677881 4.125 8.0625 C4.47820312 8.94035156 4.83140625 9.81820312 5.1953125 10.72265625 C6 13 6 13 6 15 C3.69 15 1.38 15 -1 15 C0.32 14.67 1.64 14.34 3 14 C2.34 11.69 1.68 9.38 1 7 C0.34 7 -0.32 7 -1 7 C-1 6.34 -1 5.68 -1 5 C-1.66 5 -2.32 5 -3 5 C-3 3 -3 3 -1.5 1.375 C-1.005 0.92125 -0.51 0.4675 0 0 Z " fill="#594171" transform="translate(109,88)"/>
<path d="M0 0 C2.125 0.9375 2.125 0.9375 4 2 C2.68 2 1.36 2 0 2 C0.825 2.70125 1.65 3.4025 2.5 4.125 C5 7 5 7 5.3125 10.3125 C5.1578125 11.6428125 5.1578125 11.6428125 5 13 C4.236875 12.21625 3.47375 11.4325 2.6875 10.625 C0.09108195 7.92742283 0.09108195 7.92742283 -3 6 C-2.625 3.5625 -2.625 3.5625 -2 1 C-1.34 0.67 -0.68 0.34 0 0 Z " fill="#D4D1D6" transform="translate(90,108)"/>
<path d="M0 0 C1.98 1.65 3.96 3.3 6 5 C6.99 4.34 7.98 3.68 9 3 C7.95125002 5.62187494 7.35068687 6.79371361 4.875 8.25 C4.25625 8.4975 3.6375 8.745 3 9 C2.67 8.34 2.34 7.68 2 7 C1.67 8.98 1.34 10.96 1 13 C0.67 13 0.34 13 0 13 C0 8.71 0 4.42 0 0 Z " fill="#D4D2D8" transform="translate(97,109)"/>
<path d="M0 0 C0.99 0.33 1.98 0.66 3 1 C1.40423801 2.50893816 -0.20189911 4.00691076 -1.8125 5.5 C-2.70582031 6.3353125 -3.59914063 7.170625 -4.51953125 8.03125 C-7 10 -7 10 -10 10 C-8.58768539 6.64117925 -6.96631022 4.86670953 -4.0625 2.6875 C-3.37285156 2.15511719 -2.68320313 1.62273437 -1.97265625 1.07421875 C-1.32167969 0.71972656 -0.67070312 0.36523438 0 0 Z " fill="#87638D" transform="translate(10,89)"/>
<path d="M0 0 C2.475 0.495 2.475 0.495 5 1 C5 2.98 5 4.96 5 7 C3.35 7.33 1.7 7.66 0 8 C0 5.36 0 2.72 0 0 Z " fill="#EFEDF0" transform="translate(130,109)"/>
<path d="M0 0 C2 1 2 1 2.6328125 2.84765625 C2.79523438 3.57855469 2.95765625 4.30945313 3.125 5.0625 C3.29257813 5.79597656 3.46015625 6.52945313 3.6328125 7.28515625 C3.75398438 7.85105469 3.87515625 8.41695312 4 9 C2.02 9 0.04 9 -2 9 C-1.125 2.25 -1.125 2.25 0 0 Z " fill="#E8DDEF" transform="translate(100,84)"/>
<path d="M0 0 C1.67542976 0.28604898 3.34385343 0.61781233 5 1 C4.67 2.65 4.34 4.3 4 6 C2.68 5.67 1.36 5.34 0 5 C-0.5625 3.0625 -0.5625 3.0625 -1 1 C-0.67 0.67 -0.34 0.34 0 0 Z " fill="#F6E5F7" transform="translate(48,110)"/>
<path d="M0 0 C2.0625 0.4375 2.0625 0.4375 4 1 C4.33 2.32 4.66 3.64 5 5 C3.35 5.33 1.7 5.66 0 6 C-0.38218767 4.34385343 -0.71395102 2.67542976 -1 1 C-0.67 0.67 -0.34 0.34 0 0 Z " fill="#F2E5F3" transform="translate(19,98)"/>
<path d="M0 0 C0.66 0.33 1.32 0.66 2 1 C2 5.29 2 9.58 2 14 C1.34 14 0.68 14 0 14 C-0.19393875 11.85473901 -0.37998676 9.70876323 -0.5625 7.5625 C-0.71912109 5.77005859 -0.71912109 5.77005859 -0.87890625 3.94140625 C-0.91886719 2.97074219 -0.95882812 2.00007813 -1 1 C-0.67 0.67 -0.34 0.34 0 0 Z " fill="#E4E3E6" transform="translate(107,109)"/>
<path d="M0 0 C2.97 0.33 5.94 0.66 9 1 C6 3 6 3 2 3 C1.34 4.32 0.68 5.64 0 7 C-1.32 6.67 -2.64 6.34 -4 6 C-3.01 5.34 -2.02 4.68 -1 4 C-0.67 2.68 -0.34 1.36 0 0 Z " fill="#774F7E" transform="translate(24,99)"/>
<path d="M0 0 C0.33 0 0.66 0 1 0 C1 3.63 1 7.26 1 11 C-2 9 -2 9 -2.875 7.1875 C-3.05301964 4.07215628 -1.78857694 2.47649115 0 0 Z " fill="#D9D7DD" transform="translate(166,110)"/>
<path d="M0 0 C4 4.75 4 4.75 4 7 C2.02 7.66 0.04 8.32 -2 9 C-2.66 7.68 -3.32 6.36 -4 5 C-3.01 5 -2.02 5 -1 5 C-0.67 3.35 -0.34 1.7 0 0 Z " fill="#53386E" transform="translate(123,78)"/>
<path d="M0 0 C0.99 0.33 1.98 0.66 3 1 C0.525 5.455 0.525 5.455 -2 10 C-2.33 10 -2.66 10 -3 10 C-2.88637738 8.5199159 -2.75877092 7.04089926 -2.625 5.5625 C-2.55539063 4.73878906 -2.48578125 3.91507812 -2.4140625 3.06640625 C-2.27742187 2.38449219 -2.14078125 1.70257813 -2 1 C-1.34 0.67 -0.68 0.34 0 0 Z " fill="#56386E" transform="translate(137,76)"/>
<path d="M0 0 C0.99 0 1.98 0 3 0 C6 5.75 6 5.75 6 8 C4.68 7.67 3.36 7.34 2 7 C1.34 4.69 0.68 2.38 0 0 Z " fill="#E3E1E5" transform="translate(118,115)"/>
<path d="M0 0 C2 0 4 0 6 0 C5.49396008 2.16874252 5.00016187 3.99967627 4 6 C2.68 5.34 1.36 4.68 0 4 C0 2.68 0 1.36 0 0 Z " fill="#B091B5" transform="translate(31,129)"/>
<path d="M0 0 C1.32 0 2.64 0 4 0 C4 1.98 4 3.96 4 6 C2.68 6 1.36 6 0 6 C0 4.02 0 2.04 0 0 Z " fill="#FEFCFE" transform="translate(196,116)"/>
<path d="M0 0 C1.32 0 2.64 0 4 0 C4 1.98 4 3.96 4 6 C2.68 6 1.36 6 0 6 C0 4.02 0 2.04 0 0 Z " fill="#FDFAFE" transform="translate(196,109)"/>
<path d="M0 0 C0 0.33 0 0.66 0 1 C-1.2375 1.28875 -2.475 1.5775 -3.75 1.875 C-6.72448742 2.61334794 -9.333856 3.44474933 -12 5 C-9.30839269 -1.21140148 -6.29369588 -1.18748979 0 0 Z " fill="#5C496C" transform="translate(159,76)"/>
<path d="M0 0 C0.33 0 0.66 0 1 0 C0.6875 3.375 0.6875 3.375 0 7 C-3 9 -3 9 -5.1875 8.625 C-5.785625 8.41875 -6.38375 8.2125 -7 8 C-6.01 7.67 -5.02 7.34 -4 7 C-3.28272222 5.35448038 -2.61674772 3.68577711 -2 2 C-1.34 1.34 -0.68 0.68 0 0 Z " fill="#86688B" transform="translate(55,110)"/>
<path d="M0 0 C1.32 0 2.64 0 4 0 C3.67 1.32 3.34 2.64 3 4 C0.69 4 -1.62 4 -4 4 C-4 3.34 -4 2.68 -4 2 C-2.68 2 -1.36 2 0 2 C0 1.34 0 0.68 0 0 Z " fill="#543C66" transform="translate(91,99)"/>
<path d="M0 0 C0.66 0.99 1.32 1.98 2 3 C2.99 3.66 3.98 4.32 5 5 C5.33 5.66 5.66 6.32 6 7 C3.6875 7.25 3.6875 7.25 1 7 C-0.8125 5 -0.8125 5 -2 3 C-1.34 3 -0.68 3 0 3 C0 2.01 0 1.02 0 0 Z " fill="#896690" transform="translate(17,100)"/>
<path d="M0 0 C0.33 0 0.66 0 1 0 C1 4.62 1 9.24 1 14 C-0.32 13.67 -1.64 13.34 -3 13 C-2.34 12.01 -1.68 11.02 -1 10 C-0.54398739 7.49103314 -0.54398739 7.49103314 -0.375 4.8125 C-0.30023438 3.91144531 -0.22546875 3.01039062 -0.1484375 2.08203125 C-0.09945312 1.39496094 -0.05046875 0.70789063 0 0 Z " fill="#452D5B" transform="translate(130,88)"/>
<path d="M0 0 C2.125 0.9375 2.125 0.9375 4 2 C2.68 2 1.36 2 0 2 C0 3.32 0 4.64 0 6 C-0.99 6 -1.98 6 -3 6 C-2.625 3.5625 -2.625 3.5625 -2 1 C-1.34 0.67 -0.68 0.34 0 0 Z " fill="#DBD8DD" transform="translate(90,108)"/>
<path d="M0 0 C2.97 0.495 2.97 0.495 6 1 C6.33 2.65 6.66 4.3 7 6 C3.535 4.02 3.535 4.02 0 2 C0 1.34 0 0.68 0 0 Z " fill="#7F6083" transform="translate(48,107)"/>
<path d="M0 0 C0.66 0.33 1.32 0.66 2 1 C0.63016497 4.16115776 0.0109362 4.9927092 -3 7 C-3 3 -3 3 -1.5 1.25 C-1.005 0.8375 -0.51 0.425 0 0 Z " fill="#84638D" transform="translate(31,68)"/>
<path d="M0 0 C0.99 0.33 1.98 0.66 3 1 C2.34 3.64 1.68 6.28 1 9 C0.34 9 -0.32 9 -1 9 C-1.09765625 2.84765625 -1.09765625 2.84765625 -1 1 C-0.67 0.67 -0.34 0.34 0 0 Z " fill="#A189B4" transform="translate(146,80)"/>
<path d="M0 0 C3.68754757 0.49831724 5.60490662 1.10067643 8 4 C7.01 4.33 6.02 4.66 5 5 C3.35 3.35 1.7 1.7 0 0 Z " fill="#896291" transform="translate(41,73)"/>
<path d="M0 0 C2.31 0 4.62 0 7 0 C6.67 0.66 6.34 1.32 6 2 C3.67843403 2.40729228 1.3431213 2.74438677 -1 3 C-0.67 2.01 -0.34 1.02 0 0 Z " fill="#6E647D" transform="translate(157,100)"/>
<path d="M0 0 C1.65 0.99 3.3 1.98 5 3 C4.34 4.32 3.68 5.64 3 7 C2.01 6.34 1.02 5.68 0 5 C-0.1875 2.375 -0.1875 2.375 0 0 Z " fill="#472763" transform="translate(96,78)"/>
<path d="M0 0 C0 0.99 0 1.98 0 3 C-0.99 3.33 -1.98 3.66 -3 4 C-3.66 4.66 -4.32 5.32 -5 6 C-5 4.35 -5 2.7 -5 1 C-3 0 -3 0 0 0 Z " fill="#806087" transform="translate(37,126)"/>
</svg>
