<?xml version="1.0" encoding="UTF-8"?>
<svg version="1.1" xmlns="http://www.w3.org/2000/svg" width="278" height="181">
<path d="M0 0 C91.74 0 183.48 0 278 0 C278 59.73 278 119.46 278 181 C186.26 181 94.52 181 0 181 C0 121.27 0 61.54 0 0 Z " fill="#FDFDFD" transform="translate(0,0)"/>
<path d="M0 0 C10.83042051 7.67364662 20.06278508 18.72392737 29.48364258 28.07861328 C31.79075106 30.36781248 34.10610988 32.648159 36.42895508 34.92138672 C39.25257722 37.68481008 42.06118387 40.46268506 44.8597126 43.25151062 C45.92271752 44.30597791 46.9908344 45.35531874 48.06419182 46.39924622 C49.56239065 47.85848762 51.04049773 49.33560616 52.51538086 50.81835938 C53.35951035 51.6521814 54.20363983 52.48600342 55.073349 53.34509277 C57.47806203 56.65876505 57.94128758 58.92672558 58 63 C56.96479797 65.03053284 56.96479797 65.03053284 55.27075195 66.72094727 C54.61829498 67.3925589 53.96583801 68.06417053 53.29360962 68.75613403 C52.53671844 69.4966098 51.77982727 70.23708557 51 71 C50.1690683 71.85238251 49.3381366 72.70476501 48.48202515 73.58297729 C45.56658991 76.56685226 42.62101416 79.51831417 39.66796875 82.46484375 C38.5840268 83.54946067 37.50023322 84.63422588 36.4165802 85.71913147 C34.1615814 87.97559437 31.9048093 90.23026401 29.64672852 92.48364258 C26.75034593 95.37428732 23.8585318 98.26945455 20.96799755 101.16594601 C18.7385217 103.39902737 16.50667972 105.62973162 14.27410316 107.8597126 C13.20602307 108.92712552 12.13868557 109.99528204 11.0721035 111.06419182 C9.58847546 112.55035063 8.10169552 114.03328154 6.61401367 115.51538086 C5.76908859 116.35951035 4.92416351 117.20363983 4.05363464 118.073349 C1.5640992 120.40894748 0.57131404 120.9391906 -2.83190918 121.30142212 C-6.75455805 120.92820898 -7.89078517 119.89483357 -10.68945312 117.17724609 C-11.55256104 116.35133972 -12.41566895 115.52543335 -13.30493164 114.67449951 C-14.63899048 113.35062225 -14.63899048 113.35062225 -16 112 C-16.87197021 111.15205872 -17.74394043 110.30411743 -18.64233398 109.43048096 C-21.43742047 106.69431936 -24.20633863 103.93309274 -26.96875 101.1640625 C-27.98085249 100.15263582 -28.99310319 99.14135743 -30.00549316 98.13021851 C-32.1045697 96.03260122 -34.20186475 93.933224 -36.29785156 91.83251953 C-38.98207112 89.14255174 -41.67082659 86.45716926 -44.36089325 83.77305031 C-46.44217645 81.69537698 -48.52107685 79.61533265 -50.59925842 77.53455734 C-51.59048636 76.54266398 -52.58245309 75.55150834 -53.57518005 74.56111526 C-54.95553441 73.18330002 -56.33234306 71.80193528 -57.70898438 70.42041016 C-58.49156616 69.63703278 -59.27414795 68.8536554 -60.08044434 68.04653931 C-62.82190972 65.1237188 -64.01262097 63.77190987 -63.94566345 59.67672729 C-62.84119878 55.3825829 -60.97269247 53.15338225 -57.86938477 50.17236328 C-57.33600494 49.63650101 -56.80262512 49.10063873 -56.25308228 48.54853821 C-54.49652208 46.79106393 -52.71960898 45.05586306 -50.94140625 43.3203125 C-49.71327717 42.10084269 -48.48640118 40.88010971 -47.26072693 39.65817261 C-44.03775105 36.45239455 -40.79673192 33.26546262 -37.55200195 30.08172607 C-34.90098268 27.47438079 -32.2630889 24.85397574 -29.62577915 22.23277473 C-26.48524352 19.1118187 -23.33925307 15.99639261 -20.19140625 12.8828125 C-19.28816211 11.98920706 -19.28816211 11.98920706 -18.36667061 11.07754898 C-16.66734305 9.39915146 -14.96441271 7.724511 -13.26000977 6.05126953 C-12.50171623 5.30172249 -12.50171623 5.30172249 -11.72810364 4.53703308 C-7.78791199 0.68213159 -5.63612081 -0.83498086 0 0 Z " fill="#F9F8F9" transform="translate(142,10)"/>
<path d="M0 0 C10.83042051 7.67364662 20.06278508 18.72392737 29.48364258 28.07861328 C31.79075106 30.36781248 34.10610988 32.648159 36.42895508 34.92138672 C39.25257722 37.68481008 42.06118387 40.46268506 44.8597126 43.25151062 C45.92271752 44.30597791 46.9908344 45.35531874 48.06419182 46.39924622 C49.56239065 47.85848762 51.04049773 49.33560616 52.51538086 50.81835938 C53.35951035 51.6521814 54.20363983 52.48600342 55.073349 53.34509277 C57.47806203 56.65876505 57.94128758 58.92672558 58 63 C56.96479797 65.03053284 56.96479797 65.03053284 55.27075195 66.72094727 C54.61829498 67.3925589 53.96583801 68.06417053 53.29360962 68.75613403 C52.53671844 69.4966098 51.77982727 70.23708557 51 71 C50.1690683 71.85238251 49.3381366 72.70476501 48.48202515 73.58297729 C45.56658991 76.56685226 42.62101416 79.51831417 39.66796875 82.46484375 C38.5840268 83.54946067 37.50023322 84.63422588 36.4165802 85.71913147 C34.1615814 87.97559437 31.9048093 90.23026401 29.64672852 92.48364258 C26.75034593 95.37428732 23.8585318 98.26945455 20.96799755 101.16594601 C18.7385217 103.39902737 16.50667972 105.62973162 14.27410316 107.8597126 C13.20602307 108.92712552 12.13868557 109.99528204 11.0721035 111.06419182 C9.58847546 112.55035063 8.10169552 114.03328154 6.61401367 115.51538086 C5.76908859 116.35951035 4.92416351 117.20363983 4.05363464 118.073349 C1.5640992 120.40894748 0.57131404 120.9391906 -2.83190918 121.30142212 C-6.75455805 120.92820898 -7.89078517 119.89483357 -10.68945312 117.17724609 C-11.55256104 116.35133972 -12.41566895 115.52543335 -13.30493164 114.67449951 C-14.63899048 113.35062225 -14.63899048 113.35062225 -16 112 C-16.87197021 111.15205872 -17.74394043 110.30411743 -18.64233398 109.43048096 C-21.43742047 106.69431936 -24.20633863 103.93309274 -26.96875 101.1640625 C-27.98085249 100.15263582 -28.99310319 99.14135743 -30.00549316 98.13021851 C-32.1045697 96.03260122 -34.20186475 93.933224 -36.29785156 91.83251953 C-38.98207112 89.14255174 -41.67082659 86.45716926 -44.36089325 83.77305031 C-46.44217645 81.69537698 -48.52107685 79.61533265 -50.59925842 77.53455734 C-51.59048636 76.54266398 -52.58245309 75.55150834 -53.57518005 74.56111526 C-54.95553441 73.18330002 -56.33234306 71.80193528 -57.70898438 70.42041016 C-58.49156616 69.63703278 -59.27414795 68.8536554 -60.08044434 68.04653931 C-62.82190972 65.1237188 -64.01262097 63.77190987 -63.94566345 59.67672729 C-62.84119878 55.3825829 -60.97269247 53.15338225 -57.86938477 50.17236328 C-57.33600494 49.63650101 -56.80262512 49.10063873 -56.25308228 48.54853821 C-54.49652208 46.79106393 -52.71960898 45.05586306 -50.94140625 43.3203125 C-49.71327717 42.10084269 -48.48640118 40.88010971 -47.26072693 39.65817261 C-44.03775105 36.45239455 -40.79673192 33.26546262 -37.55200195 30.08172607 C-34.90098268 27.47438079 -32.2630889 24.85397574 -29.62577915 22.23277473 C-26.48524352 19.1118187 -23.33925307 15.99639261 -20.19140625 12.8828125 C-19.28816211 11.98920706 -19.28816211 11.98920706 -18.36667061 11.07754898 C-16.66734305 9.39915146 -14.96441271 7.724511 -13.26000977 6.05126953 C-12.50171623 5.30172249 -12.50171623 5.30172249 -11.72810364 4.53703308 C-7.78791199 0.68213159 -5.63612081 -0.83498086 0 0 Z M-11.36279297 10.58642578 C-11.86110123 11.07422012 -12.35940948 11.56201447 -12.87281799 12.06459045 C-14.51133261 13.67675615 -16.12698714 15.30981361 -17.7421875 16.9453125 C-18.87616894 18.07525089 -20.01103968 19.20429745 -21.14675903 20.33248901 C-23.52178857 22.69867892 -25.88564313 25.07536488 -28.2421875 27.45996094 C-31.26178483 30.51374354 -34.30752253 33.53979493 -37.36215019 36.55848885 C-39.70991933 38.88456266 -42.04319218 41.22475643 -44.37234879 43.56945419 C-45.48988776 44.69099185 -46.61189056 45.80809999 -47.73839951 46.92062759 C-49.31178299 48.47874756 -50.86461107 50.05485754 -52.41357422 51.63720703 C-53.30148651 52.52989288 -54.1893988 53.42257874 -55.10421753 54.34231567 C-57.19348508 56.87999789 -57.19348508 56.87999789 -57.57330322 60 C-56.81340705 63.97640972 -55.25978748 65.50127801 -52.41357422 68.36279297 C-51.92577988 68.86110123 -51.43798553 69.35940948 -50.93540955 69.87281799 C-49.32324385 71.51133261 -47.69018639 73.12698714 -46.0546875 74.7421875 C-44.92474911 75.87616894 -43.79570255 77.01103968 -42.66751099 78.14675903 C-40.30132108 80.52178857 -37.92463512 82.88564313 -35.54003906 85.2421875 C-32.48625646 88.26178483 -29.46020507 91.30752253 -26.44151115 94.36215019 C-24.11543734 96.70991933 -21.77524357 99.04319218 -19.43054581 101.37234879 C-18.30900815 102.48988776 -17.19190001 103.61189056 -16.07937241 104.73839951 C-14.52125244 106.31178299 -12.94514246 107.86461107 -11.36279297 109.41357422 C-10.47010712 110.30148651 -9.57742126 111.1893988 -8.65768433 112.10421753 C-5.43428084 114.40353945 -3.87919755 114.6249579 0 114 C2.05975736 112.8711039 2.05975736 112.8711039 3.75415039 111.11254883 C4.4342215 110.46967926 5.1142926 109.82680969 5.81497192 109.16445923 C6.53603119 108.45018768 7.25709045 107.73591614 8 107 C8.76400116 106.26002777 9.52800232 105.52005554 10.31515503 104.75765991 C12.87469285 102.25765295 15.40657956 99.73208383 17.93359375 97.19921875 C18.85213638 96.28163284 19.77067902 95.36404694 20.71705627 94.4186554 C22.64396949 92.49320392 24.56909375 90.56598693 26.49291992 88.63745117 C28.95982339 86.16480285 31.43125536 83.69673681 33.904006 81.22993755 C36.27046121 78.86795286 38.63311268 76.50217911 40.99609375 74.13671875 C42.32875526 72.80709358 42.32875526 72.80709358 43.68833923 71.4506073 C44.50331375 70.63248062 45.31828827 69.81435394 46.15795898 68.97143555 C46.87773422 68.25086472 47.59750946 67.53029388 48.33909607 66.78788757 C50.37761996 64.59350929 50.93772958 63.32691968 51.5 60.375 C50.26684513 52.05120464 39.93468926 44.7886279 34.19921875 39.06640625 C33.28163284 38.14786362 32.36404694 37.22932098 31.4186554 36.28294373 C29.49320392 34.35603051 27.56598693 32.43090625 25.63745117 30.50708008 C23.16480285 28.04017661 20.69673681 25.56874464 18.22993755 23.095994 C15.86795286 20.72953879 13.50217911 18.36688732 11.13671875 16.00390625 C10.25030197 15.11546524 9.36388519 14.22702423 8.4506073 13.31166077 C7.63248062 12.49668625 6.81435394 11.68171173 5.97143555 10.84204102 C5.25086472 10.12226578 4.53029388 9.40249054 3.78788757 8.66090393 C1.48654221 6.52301024 0.35227204 6.04408747 -2.78982544 5.65084839 C-7.03784529 6.11288027 -8.35369512 7.59341882 -11.36279297 10.58642578 Z " fill="#191148" transform="translate(142,10)"/>
<path d="M0 0 C4.73848641 1.82557011 7.85493958 5.71294946 11.36352539 9.27124023 C12.16016602 10.0440332 12.95680664 10.81682617 13.77758789 11.61303711 C14.89907227 12.73742187 14.89907227 12.73742187 16.04321289 13.88452148 C16.72883301 14.5694165 17.41445312 15.25431152 18.12084961 15.95996094 C19.48852539 17.95874023 19.48852539 17.95874023 19.44506836 19.94067383 C17.30280313 24.46031762 13.22880058 27.7728102 9.73852539 31.27124023 C8.92641602 32.12008789 8.11430664 32.96893555 7.27758789 33.84350586 C6.09036133 35.03943359 6.09036133 35.03943359 4.87915039 36.25952148 C4.15759766 36.99340088 3.43604492 37.72728027 2.69262695 38.48339844 C0.48852539 39.95874023 0.48852539 39.95874023 -2.03662109 39.90380859 C-6.56477285 38.17465051 -9.47531854 34.60826954 -12.82397461 31.20874023 C-13.56454102 30.49202148 -14.30510742 29.77530273 -15.06811523 29.03686523 C-15.76743164 28.33561523 -16.46674805 27.63436523 -17.18725586 26.91186523 C-17.82574463 26.27410156 -18.4642334 25.63633789 -19.12207031 24.97924805 C-20.91986256 22.36485187 -21.05648842 21.07439248 -20.51147461 17.95874023 C-18.04541487 14.45351362 -14.87678827 11.58241764 -11.82397461 8.58374023 C-11.00735352 7.7394043 -10.19073242 6.89506836 -9.34936523 6.02514648 C-8.55336914 5.23237305 -7.75737305 4.43959961 -6.93725586 3.62280273 C-5.84537964 2.53153076 -5.84537964 2.53153076 -4.73144531 1.41821289 C-2.51147461 -0.04125977 -2.51147461 -0.04125977 0 0 Z " fill="#F05235" transform="translate(140.511474609375,25.041259765625)"/>
<path d="M0 0 C3.77444554 0.50044565 5.79192744 2.94550095 8.3203125 5.57421875 C8.83078125 6.06535156 9.34125 6.55648437 9.8671875 7.0625 C11.3125 8.52734375 11.3125 8.52734375 13.4453125 11.32421875 C13.07702291 17.00608849 7.39984167 20.88136124 3.6328125 24.63671875 C2.81232422 25.48556641 1.99183594 26.33441406 1.14648438 27.20898438 C-0.04557617 28.40491211 -0.04557617 28.40491211 -1.26171875 29.625 C-1.9885083 30.35887939 -2.71529785 31.09275879 -3.46411133 31.84887695 C-5.5546875 33.32421875 -5.5546875 33.32421875 -7.56396484 33.28295898 C-11.87584321 31.20634059 -15.01703247 27.41608815 -18.3671875 24.07421875 C-19.16833984 23.30980469 -19.96949219 22.54539062 -20.79492188 21.7578125 C-21.54708984 21.01144531 -22.29925781 20.26507813 -23.07421875 19.49609375 C-23.76620361 18.81643555 -24.45818848 18.13677734 -25.17114258 17.43652344 C-26.5546875 15.32421875 -26.5546875 15.32421875 -26.37060547 12.71484375 C-24.63624629 7.63320249 -20.96559626 4.2269199 -16.5546875 1.32421875 C-10.98910826 0.06350743 -5.5808857 0.70827754 0 0 Z " fill="#170D47" transform="translate(145.5546875,82.67578125)"/>
<path d="M0 0 C4.75572788 1.79464054 7.86892726 5.69736947 11.37939453 9.25756836 C12.17603516 10.03036133 12.97267578 10.8031543 13.79345703 11.59936523 C14.91494141 12.72375 14.91494141 12.72375 16.05908203 13.87084961 C16.74470215 14.55574463 17.43032227 15.24063965 18.13671875 15.94628906 C19.50439453 17.94506836 19.50439453 17.94506836 19.34472656 20.07470703 C18.50439453 21.94506836 18.50439453 21.94506836 16.50439453 23.94506836 C9.49396809 24.17155906 2.77405617 23.07989918 -3.49560547 19.94506836 C-4.99560547 17.75756836 -4.99560547 17.75756836 -5.49560547 15.94506836 C-6.8457451 19.99548724 -7.03384913 23.71035722 -6.49560547 27.94506836 C-3.6016237 31.84565248 1.98313979 32.08071083 6.50439453 32.94506836 C4.52439453 35.25506836 2.54439453 37.56506836 0.50439453 39.94506836 C-5.27213591 38.50093575 -8.16844229 34.82449329 -12.30810547 30.69506836 C-13.10925781 29.9306543 -13.91041016 29.16624023 -14.73583984 28.37866211 C-15.48800781 27.63229492 -16.24017578 26.88592773 -17.01513672 26.11694336 C-17.70712158 25.43728516 -18.39910645 24.75762695 -19.11206055 24.05737305 C-20.49560547 21.94506836 -20.49560547 21.94506836 -20.44067383 19.44946289 C-18.6493179 14.7024391 -14.79007016 11.58523995 -11.24560547 8.07006836 C-10.48119141 7.27342773 -9.71677734 6.47678711 -8.92919922 5.65600586 C-8.18283203 4.90834961 -7.43646484 4.16069336 -6.66748047 3.39038086 C-5.98782227 2.70476074 -5.30816406 2.01914062 -4.60791016 1.31274414 C-2.49560547 -0.05493164 -2.49560547 -0.05493164 0 0 Z " fill="#160C46" transform="translate(114.49560546875,51.054931640625)"/>
<path d="M0 0 C4.75572788 1.79464054 7.86892726 5.69736947 11.37939453 9.25756836 C12.17603516 10.03036133 12.97267578 10.8031543 13.79345703 11.59936523 C14.91494141 12.72375 14.91494141 12.72375 16.05908203 13.87084961 C16.74470215 14.55574463 17.43032227 15.24063965 18.13671875 15.94628906 C19.50439453 17.94506836 19.50439453 17.94506836 19.46313477 19.92700195 C17.31297533 24.45290414 13.19762776 27.7626972 9.69189453 31.25756836 C8.87140625 32.10641602 8.05091797 32.95526367 7.20556641 33.82983398 C6.01350586 35.02576172 6.01350586 35.02576172 4.79736328 36.24584961 C4.07057373 36.979729 3.34378418 37.7136084 2.5949707 38.46972656 C0.50439453 39.94506836 0.50439453 39.94506836 -1.64379883 39.77807617 C-4.03426938 38.70275837 -5.44913263 37.28268386 -7.24560547 35.38256836 C-8.16599609 34.42157227 -8.16599609 34.42157227 -9.10498047 33.44116211 C-9.56388672 32.94745117 -10.02279297 32.45374023 -10.49560547 31.94506836 C-8.36743455 29.63789241 -6.30464978 28.19222495 -3.55810547 26.69506836 C0.56598186 24.12795691 3.13644433 21.6890495 4.50439453 16.94506836 C4.8035689 13.25026494 4.74503619 9.64159156 4.50439453 5.94506836 C2.10122587 5.71030425 2.10122587 5.71030425 -0.49560547 5.94506836 C-3.07075416 9.07700596 -4.49560547 10.83917414 -4.49560547 14.94506836 C-2.02060547 15.44006836 -2.02060547 15.44006836 0.50439453 15.94506836 C0.50439453 17.26506836 0.50439453 18.58506836 0.50439453 19.94506836 C-12.06507409 24.83193229 -12.06507409 24.83193229 -17.49560547 24.94506836 C-19.49560547 23.82006836 -19.49560547 23.82006836 -20.49560547 21.94506836 C-19.92772632 15.58350122 -15.56712897 12.35587679 -11.24560547 8.07006836 C-10.48119141 7.27342773 -9.71677734 6.47678711 -8.92919922 5.65600586 C-8.18283203 4.90834961 -7.43646484 4.16069336 -6.66748047 3.39038086 C-5.98782227 2.70476074 -5.30816406 2.01914062 -4.60791016 1.31274414 C-2.49560547 -0.05493164 -2.49560547 -0.05493164 0 0 Z " fill="#170E47" transform="translate(165.49560546875,50.054931640625)"/>
<path d="M0 0 C1.32 0 2.64 0 4 0 C4.33 3.3 4.66 6.6 5 10 C10.28 10.33 15.56 10.66 21 11 C21 10.34 21 9.68 21 9 C20.195625 9.020625 19.39125 9.04125 18.5625 9.0625 C16 9 16 9 15 8 C14.8125 5.0625 14.8125 5.0625 15 2 C15.66 1.34 16.32 0.68 17 0 C20.5 0.1875 20.5 0.1875 24 1 C26.45811625 4.68717438 26.31118164 6.64345704 26 11 C25.34 11.99 24.68 12.98 24 14 C21.93701172 14.34057617 21.93701172 14.34057617 19.4296875 14.29296875 C18.53378906 14.28330078 17.63789063 14.27363281 16.71484375 14.26367188 C15.30912109 14.2259668 15.30912109 14.2259668 13.875 14.1875 C12.45767578 14.16719727 12.45767578 14.16719727 11.01171875 14.14648438 C8.67391221 14.11106306 6.33723763 14.06167271 4 14 C3.71125 14.78375 3.4225 15.5675 3.125 16.375 C2 19 2 19 0 21 C-2.68839385 21.26991906 -5.29141936 21.08737357 -8 21 C-8 20.01 -8 19.02 -8 18 C-5.69 17.34 -3.38 16.68 -1 16 C-0.67 10.72 -0.34 5.44 0 0 Z " fill="#08033E" transform="translate(196,142)"/>
<path d="M0 0 C0.99 0 1.98 0 3 0 C3 3.3 3 6.6 3 10 C8.61 10 14.22 10 20 10 C20.33 6.7 20.66 3.4 21 0 C22.32 0 23.64 0 25 0 C25.05410687 1.77049689 25.09284119 3.54146849 25.125 5.3125 C25.14820313 6.29863281 25.17140625 7.28476563 25.1953125 8.30078125 C25 11 25 11 23 14 C20.93701172 14.34057617 20.93701172 14.34057617 18.4296875 14.29296875 C17.53378906 14.28330078 16.63789063 14.27363281 15.71484375 14.26367188 C14.30912109 14.2259668 14.30912109 14.2259668 12.875 14.1875 C11.45767578 14.16719727 11.45767578 14.16719727 10.01171875 14.14648438 C7.67391221 14.11106306 5.33723763 14.06167271 3 14 C2.87625 14.78375 2.7525 15.5675 2.625 16.375 C2 19 2 19 0 21 C-2.68839385 21.26991906 -5.29141936 21.08737357 -8 21 C-8 20.01 -8 19.02 -8 18 C-4.535 17.505 -4.535 17.505 -1 17 C-0.67 11.39 -0.34 5.78 0 0 Z " fill="#0A063F" transform="translate(139,142)"/>
<path d="M0 0 C0 0.33 0 0.66 0 1 C-0.87214645 1.2231488 -1.74429291 1.44629761 -2.64286804 1.6762085 C-6.48276982 3.19036683 -8.87114773 5.29992603 -11.71411133 8.18066406 C-12.24982758 8.70776474 -12.78554382 9.23486542 -13.3374939 9.77793884 C-15.09595871 11.51380002 -16.83938316 13.26389609 -18.58203125 15.015625 C-19.80366306 16.23201949 -21.02581363 17.44789319 -22.24845886 18.66326904 C-24.80442692 21.20884374 -27.35279034 23.76174392 -29.89624023 26.31982422 C-33.15394434 29.59473092 -36.43157814 32.84882958 -39.71541309 36.09750748 C-42.24216632 38.60228875 -44.75710901 41.11867023 -47.26874352 43.63860321 C-48.47259102 44.84327001 -49.68028545 46.04410534 -50.89188576 47.24097443 C-52.5845088 48.9161525 -54.26034758 50.60653368 -55.93286133 52.30175781 C-56.4341304 52.79133469 -56.93539948 53.28091156 -57.45185852 53.7853241 C-60.62094417 57.04245158 -61.68630522 59.47546259 -62 64 C-62.66 63.67 -63.32 63.34 -64 63 C-63.66320337 57.1109735 -62.01205576 54.15178845 -57.86938477 50.17236328 C-57.33600494 49.63650101 -56.80262512 49.10063873 -56.25308228 48.54853821 C-54.49652208 46.79106393 -52.71960898 45.05586306 -50.94140625 43.3203125 C-49.71327717 42.10084269 -48.48640118 40.88010971 -47.26072693 39.65817261 C-44.03775105 36.45239455 -40.79673192 33.26546262 -37.55200195 30.08172607 C-34.90098268 27.47438079 -32.2630889 24.85397574 -29.62577915 22.23277473 C-26.48524352 19.1118187 -23.33925307 15.99639261 -20.19140625 12.8828125 C-19.28816211 11.98920706 -19.28816211 11.98920706 -18.36667061 11.07754898 C-16.66734305 9.39915146 -14.96441271 7.724511 -13.26000977 6.05126953 C-12.50171623 5.30172249 -12.50171623 5.30172249 -11.72810364 4.53703308 C-7.60641537 0.50456368 -5.76268234 -0.1252757 0 0 Z " fill="#221D4F" transform="translate(142,10)"/>
<path d="M0 0 C0.99 0 1.98 0 3 0 C3.04898438 1.05960938 3.09796875 2.11921875 3.1484375 3.2109375 C3.22346709 4.59898497 3.29901485 5.98700451 3.375 7.375 C3.42140625 8.42300781 3.42140625 8.42300781 3.46875 9.4921875 C3.59499498 13.70185827 3.59499498 13.70185827 6 17 C10.14509433 17.28602162 10.14509433 17.28602162 14 16 C14.31241455 13.28553021 14.51336592 10.66090639 14.625 7.9375 C14.68300781 6.79958008 14.68300781 6.79958008 14.7421875 5.63867188 C14.83673562 3.75952805 14.91946756 1.87979664 15 0 C16.32 0 17.64 0 19 0 C19.08139142 2.39652528 19.14067009 4.79025436 19.1875 7.1875 C19.21263672 7.86103516 19.23777344 8.53457031 19.26367188 9.22851562 C19.32931539 13.71415591 18.68855807 16.40396893 16 20 C14.19350099 21.80649901 11.56248958 21.25696966 9.125 21.3125 C8.05507812 21.34988281 6.98515625 21.38726562 5.8828125 21.42578125 C3 21 3 21 1.12890625 19.52734375 C-0.54814856 15.77283003 -0.31875518 12.30881408 -0.1875 8.25 C-0.17396484 7.45722656 -0.16042969 6.66445312 -0.14648438 5.84765625 C-0.11125223 3.89814436 -0.05744821 1.94898374 0 0 Z " fill="#130E45" transform="translate(57,142)"/>
<path d="M0 0 C1.62463842 -0.05395478 3.24978541 -0.09277195 4.875 -0.125 C5.77992187 -0.14820313 6.68484375 -0.17140625 7.6171875 -0.1953125 C10 0 10 0 12 2 C12.23046875 4.56640625 12.23046875 4.56640625 12.1875 7.5625 C12.17783203 9.04943359 12.17783203 9.04943359 12.16796875 10.56640625 C12 13 12 13 11 14 C8.81360547 14.07258946 6.62499611 14.08373783 4.4375 14.0625 C2.64119141 14.04896484 2.64119141 14.04896484 0.80859375 14.03515625 C-0.11824219 14.02355469 -1.04507813 14.01195312 -2 14 C-2 12.68 -2 11.36 -2 10 C1.3 10 4.6 10 8 10 C8 8.02 8 6.04 8 4 C5.36 4 2.72 4 0 4 C0 2.68 0 1.36 0 0 Z " fill="#0F0942" transform="translate(118,142)"/>
<path d="M0 0 C1.32 0 2.64 0 4 0 C4.10845031 2.56364483 4.18749744 5.12266279 4.25 7.6875 C4.30027344 8.7693457 4.30027344 8.7693457 4.3515625 9.87304688 C4.42140636 13.69699825 4.22485796 15.61452921 2.25 19 C0 21 0 21 -2.140625 21.48828125 C-3.18476563 21.40126953 -3.18476563 21.40126953 -4.25 21.3125 C-5.4875 21.209375 -6.725 21.10625 -8 21 C-8 19.68 -8 18.36 -8 17 C-4.535 16.505 -4.535 16.505 -1 16 C-0.67 10.72 -0.34 5.44 0 0 Z " fill="#130D44" transform="translate(172,142)"/>
<path d="M0 0 C3.5 0.1875 3.5 0.1875 7 1 C9.46324069 4.69486103 9.38991688 6.63293092 9 11 C7.5 12.9375 7.5 12.9375 6 14 C5.34 13.67 4.68 13.34 4 13 C4 11.68 4 10.36 4 9 C3.195625 9.020625 2.39125 9.04125 1.5625 9.0625 C-1 9 -1 9 -2 8 C-2.1875 5.0625 -2.1875 5.0625 -2 2 C-1.34 1.34 -0.68 0.68 0 0 Z " fill="#231D50" transform="translate(213,142)"/>
<path d="M0 0 C1.32 0 2.64 0 4 0 C4.08139142 2.39652528 4.14067009 4.79025436 4.1875 7.1875 C4.21263672 7.86103516 4.23777344 8.53457031 4.26367188 9.22851562 C4.32931539 13.71415591 3.68855807 16.40396893 1 20 C0 21 0 21 -1.84765625 21.09765625 C-3.8984375 21.06510417 -5.94921875 21.03255208 -8 21 C-8 20.01 -8 19.02 -8 18 C-6.5459375 17.5359375 -6.5459375 17.5359375 -5.0625 17.0625 C-2.15934208 16.30476658 -2.15934208 16.30476658 -1 15 C-0.76346477 12.47403741 -0.57826308 9.96892793 -0.4375 7.4375 C-0.37272461 6.37112305 -0.37272461 6.37112305 -0.30664062 5.28320312 C-0.20028223 3.52238088 -0.09961154 1.7612168 0 0 Z " fill="#1F1A4E" transform="translate(95,142)"/>
<path d="M0 0 C1.32 0 2.64 0 4 0 C4 6.27 4 12.54 4 19 C2.68 19 1.36 19 0 19 C0 12.73 0 6.46 0 0 Z " fill="#09043D" transform="translate(105,137)"/>
<path d="M0 0 C1.32 0 2.64 0 4 0 C4 6.27 4 12.54 4 19 C2.68 19 1.36 19 0 19 C0 12.73 0 6.46 0 0 Z " fill="#0E0641" transform="translate(184,137)"/>
<path d="M0 0 C0.73895508 0.23605957 1.47791016 0.47211914 2.23925781 0.71533203 C2.23925781 1.70533203 2.23925781 2.69533203 2.23925781 3.71533203 C1.24925781 3.05533203 0.25925781 2.39533203 -0.76074219 1.71533203 C-1.29554199 2.25013184 -1.8303418 2.78493164 -2.38134766 3.3359375 C-8.5078125 9.46240234 -14.63427734 15.58886719 -20.76074219 21.71533203 C-19.97982557 15.30985647 -15.91865047 12.21181132 -11.51074219 7.84033203 C-10.74632812 7.04369141 -9.98191406 6.24705078 -9.19433594 5.42626953 C-8.44796875 4.67861328 -7.70160156 3.93095703 -6.93261719 3.16064453 C-6.25295898 2.47502441 -5.57330078 1.7894043 -4.87304688 1.08300781 C-2.76074219 -0.28466797 -2.76074219 -0.28466797 0 0 Z " fill="#252051" transform="translate(165.7607421875,50.28466796875)"/>
<path d="M0 0 C0.99 0 1.98 0 3 0 C3 6.27 3 12.54 3 19 C2.01 19 1.02 19 0 19 C0 12.73 0 6.46 0 0 Z " fill="#08033F" transform="translate(83,137)"/>
<path d="M0 0 C0.66 0.66 1.32 1.32 2 2 C-3.94 7.94 -9.88 13.88 -16 20 C-16.66 19.34 -17.32 18.68 -18 18 C-12.06 12.06 -6.12 6.12 0 0 Z " fill="#231D4F" transform="translate(112,51)"/>
<path d="M0 0 C0.66 0 1.32 0 2 0 C2 2.97 2 5.94 2 9 C2.66 9 3.32 9 4 9 C3.67 10.98 3.34 12.96 3 15 C2.67 14.34 2.34 13.68 2 13 C1.34 13 0.68 13 0 13 C0 8.71 0 4.42 0 0 Z " fill="#180C48" transform="translate(197,143)"/>
<path d="M0 0 C0.66 0.66 1.32 1.32 2 2 C1.67 2.66 1.34 3.32 1 4 C2.32 4 3.64 4 5 4 C4.67 5.32 4.34 6.64 4 8 C2.02 8 0.04 8 -2 8 C-2.125 5.125 -2.125 5.125 -2 2 C-1.34 1.34 -0.68 0.68 0 0 Z " fill="#3C3664" transform="translate(213,142)"/>
<path d="M0 0 C0.66 0.66 1.32 1.32 2 2 C-1.66666667 5.66666667 -5.33333333 9.33333333 -9 13 C-8.51286902 8.58489226 -7.14946803 6.69553355 -3.9375 3.6875 C-3.20402344 2.99011719 -2.47054687 2.29273437 -1.71484375 1.57421875 C-1.14894531 1.05472656 -0.58304688 0.53523438 0 0 Z " fill="#201B4D" transform="translate(128,85)"/>
<path d="M0 0 C1.62418745 -0.08090971 3.24951745 -0.13914995 4.875 -0.1875 C5.77992187 -0.22230469 6.68484375 -0.25710937 7.6171875 -0.29296875 C8.79667969 -0.14794922 8.79667969 -0.14794922 10 0 C10.66 0.99 11.32 1.98 12 3 C8.04 3 4.08 3 0 3 C0 2.01 0 1.02 0 0 Z " fill="#06033E" transform="translate(116,153)"/>
<path d="M0 0 C0 3.63 0 7.26 0 11 C-0.99 11.495 -0.99 11.495 -2 12 C-3.20272819 9.59454362 -3.10071472 8.05003047 -3.0625 5.375 C-3.05347656 4.55773437 -3.04445312 3.74046875 -3.03515625 2.8984375 C-3.02355469 2.27195313 -3.01195312 1.64546875 -3 1 C-1 0 -1 0 0 0 Z " fill="#2A2354" transform="translate(164,142)"/>
<path d="M0 0 C0.33 0 0.66 0 1 0 C1.12375 0.7425 1.2475 1.485 1.375 2.25 C1.95486701 4.80141485 2.73708739 6.7267573 4 9 C3.01 9.495 3.01 9.495 2 10 C1.01 9.34 0.02 8.68 -1 8 C-3.27912938 7.54605448 -3.27912938 7.54605448 -5.6875 7.375 C-6.89986328 7.26285156 -6.89986328 7.26285156 -8.13671875 7.1484375 C-8.75160156 7.09945312 -9.36648437 7.05046875 -10 7 C-10 6.67 -10 6.34 -10 6 C-6.7 6 -3.4 6 0 6 C0 4.02 0 2.04 0 0 Z " fill="#5D5879" transform="translate(126,146)"/>
<path d="M0 0 C0.33 0 0.66 0 1 0 C1 2.97 1 5.94 1 9 C1.99 9.33 2.98 9.66 4 10 C4 10.66 4 11.32 4 12 C3.34 12 2.68 12 2 12 C2 12.99 2 13.98 2 15 C1.34 15 0.68 15 0 15 C0 10.05 0 5.1 0 0 Z " fill="#160D46" transform="translate(140,143)"/>
<path d="M0 0 C0.66 0.33 1.32 0.66 2 1 C2 2.65 2 4.3 2 6 C1.01 6.495 1.01 6.495 0 7 C0 6.34 0 5.68 0 5 C-1.98 5 -3.96 5 -6 5 C-5.34 4.01 -4.68 3.02 -4 2 C-2.68 2 -1.36 2 0 2 C0 1.34 0 0.68 0 0 Z " fill="#0B0440" transform="translate(218,146)"/>
<path d="M0 0 C0.66 0 1.32 0 2 0 C1.34 1.32 0.68 2.64 0 4 C-2.64 4 -5.28 4 -8 4 C-8 3.01 -8 2.02 -8 1 C-5.625 0.875 -5.625 0.875 -3 1 C-2.34 1.66 -1.68 2.32 -1 3 C-0.67 2.01 -0.34 1.02 0 0 Z " fill="#07043C" transform="translate(172,159)"/>
<path d="M0 0 C0.66 1.32 1.32 2.64 2 4 C-0.31 4 -2.62 4 -5 4 C-5 3.01 -5 2.02 -5 1 C-3.35 0.67 -1.7 0.34 0 0 Z " fill="#06033D" transform="translate(92,159)"/>
<path d="M0 0 C0.99 0.66 1.98 1.32 3 2 C2.34 3.32 1.68 4.64 1 6 C0.01 5.34 -0.98 4.68 -2 4 C-1.34 2.68 -0.68 1.36 0 0 Z " fill="#211C4A" transform="translate(153,168)"/>
<path d="M0 0 C1.32 0.66 2.64 1.32 4 2 C3.01 3.485 3.01 3.485 2 5 C0.68 4.34 -0.64 3.68 -2 3 C-1.34 2.01 -0.68 1.02 0 0 Z " fill="#100A43" transform="translate(157,164)"/>
<path d="M0 0 C1.32 0.66 2.64 1.32 4 2 C3.01 3.485 3.01 3.485 2 5 C0.68 4.34 -0.64 3.68 -2 3 C-1.34 2.01 -0.68 1.02 0 0 Z " fill="#1C1749" transform="translate(148,164)"/>
<path d="M0 0 C1.32 0.66 2.64 1.32 4 2 C3.01 3.485 3.01 3.485 2 5 C0.68 4.34 -0.64 3.68 -2 3 C-1.34 2.01 -0.68 1.02 0 0 Z " fill="#191348" transform="translate(65,142)"/>
<path d="M0 0 C1.32 0.66 2.64 1.32 4 2 C3.01 3.485 3.01 3.485 2 5 C0.68 4.34 -0.64 3.68 -2 3 C-1.34 2.01 -0.68 1.02 0 0 Z " fill="#181247" transform="translate(173,134)"/>
<path d="M0 0 C0.99 0.66 1.98 1.32 3 2 C2.34 3.32 1.68 4.64 1 6 C0.01 5.34 -0.98 4.68 -2 4 C-1.34 2.68 -0.68 1.36 0 0 Z " fill="#24204B" transform="translate(96,134)"/>
<path d="M0 0 C1.32 0.66 2.64 1.32 4 2 C3.01 3.485 3.01 3.485 2 5 C0.68 4.34 -0.64 3.68 -2 3 C-1.34 2.01 -0.68 1.02 0 0 Z " fill="#150E46" transform="translate(214,134)"/>
</svg>
